<svg xmlns="http://www.w3.org/2000/svg" viewBox="0 0 512 512">
  <defs>
    <linearGradient id="grad" x1="0%" y1="0%" x2="100%" y2="100%">
      <stop offset="0%" style="stop-color:#4f46e5;stop-opacity:1" />
      <stop offset="100%" style="stop-color:#7c3aed;stop-opacity:1" />
    </linearGradient>
  </defs>
  <rect width="512" height="512" rx="128" fill="url(#grad)" />
  <path d="M128 192a64 64 0 0 1 64-64h128a64 64 0 0 1 64 64v32a64 64 0 0 1-64 64h-128a64 64 0 0 1-64-64v-32z m32 128a128 128 0 0 1 256 0v64a32 32 0 0 1-32 32H128a32 32 0 0 1-32-32v-64z" fill="white" />
  <path d="M256 128a64 64 0 1 1 0 128 64 64 0 0 1 0-128z" fill="white" transform="translate(0, 32)" />
</svg>
